# xmcd
#
# Track frame offsets: 
#        150
#        41650
#        59128
#        76903
#        89250
#        112308
#        135250
#        165485
#        186800
#        196258
#        211670
#        229483
#
# Disc length: 3219 seconds
#
# Revision: 2
# Processed by: cddbd v1.5.2PL0 Copyright (c) Steve Scherf et al.
# Submitted via: ExactAudioCopyFreeDBPlugin 1.0
#
DISCID=a30c910c
DTITLE=Christopher Hogwood, Academy of Ancient Music - Vivaldi: Concer
DTITLE=to 'per Flautino', 2 Cantatas, etc.
DYEAR=1989
DGENRE=Vocal
TTITLE0=Trio Sonata in D minor, Op. 1-12 , RV 63, "La Folia"
TTITLE1=Concerto in C major, RV 443, "per flautino" - I. Allegro
TTITLE2=Concerto in C major, RV 443, "per flautino" - II. Largo
TTITLE3=Concerto in C major, RV 443, "per flautino" - III. Allegro mol
TTITLE3=to
TTITLE4=Cantata "Amor hai vinto", RV 651 - I. "Amor, hai vinto" - II. 
TTITLE4="Passo di pena in pena"
TTITLE5=Cantata "Amor hai vinto", RV 651 - III. "In qual strano" - IV.
TTITLE5="Se a me rivolge il ciglio"
TTITLE6=Motet "Nulla in mundo pax sincera", RV 630 - I. "Nulla in mund
TTITLE6=o pax sincera"
TTITLE7=Motet "Nulla in mundo pax sincera", RV 630 - II. "Blande color
TTITLE7=e" - III. "Spirat anguis inter flores"
TTITLE8=Motet "Nulla in mundo pax sincera", RV 630 - IV. "Alleluia"
TTITLE9=Concerto in A major, RV 585, "in due cori" - I. Allegro
TTITLE10=Concerto in A major, RV 585, "in due cori" - II. Adagio
TTITLE11=Concerto in A major, RV 585, "in due cori" - III. Allegro
EXTD=YEAR: 2013
EXTT0=
EXTT1=
EXTT2=
EXTT3=
EXTT4=
EXTT5=
EXTT6=
EXTT7=
EXTT8=
EXTT9=
EXTT10=
EXTT11=
PLAYORDER=
